<?xml version="1.0" encoding="utf-8"?>
<!-- Generator: Adobe Illustrator 21.1.0, SVG Export Plug-In . SVG Version: 6.00 Build 0)  -->
<svg version="1.1" id="Capa_1" xmlns="http://www.w3.org/2000/svg" xmlns:xlink="http://www.w3.org/1999/xlink" x="0px" y="0px"
	 viewBox="0 0 310 200" style="enable-background:new 0 0 310 200;" xml:space="preserve">
<style type="text/css">
	.st0{fill:#CDCDCD;}
	.st1{fill:#878787;}
	.st2{fill:#00CCB8;}
	.st3{font-family:'Gotham-Light';}
	.st4{font-size:14.4px;}
</style>
<title>Diagrama</title>
<desc>Created with Sketch.</desc>
<g id="desktop">
	<g id="CV-filters-dimensiones" transform="translate(-488.000000, -328.000000)">
		<g id="filtrar-por" transform="translate(432.000000, 184.000000)">
			<g id="Diagrama" transform="translate(56.000000, 144.000000)">
				<g id="Sofa" transform="translate(38.776119, 0.000000)">
					<path id="Fill-4" d="M27,125.2c1.1-3.3,2.3-7.9,2.6-9.2c-1.5-0.5-2.9-1-4.3-1.4c-0.5,2-2.2,9.5-2.8,11.6
						c-0.4,1.6-0.5,2.6-0.1,3.1c0.2,0.3,0.6,0.5,1.1,0.6C25.1,130.1,25.6,129.4,27,125.2L27,125.2z M51.1,122.3
						c0.6,0.2,1.1,0.4,1.6,0.6c-0.7-4.2-4.9-28.3-5.2-32.3c0-0.5-0.1-1.2-0.2-2C46.8,84.2,45.8,76,49.2,72c1.2-1.5,2.9-2.3,5.1-2.4
						c-5.4-1.3-13.2-2.3-17-2.8c-5.7-0.7-7.6-0.7-10.5-0.7c-0.6,0-1.3,0-2,0c-4.3,0-8.5,0.7-9.7,1.6c-0.6,0.5-1.1,1.1-1.4,1.6
						c-0.3,0.5-0.5,0.9-0.5,0.9c0.1,5,0.3,10.1,0.7,14.7c1.2,13,4.4,24.8,4.9,26.5C21.1,112.2,39.8,118.5,51.1,122.3L51.1,122.3z
						 M62.8,139.5c0.6-3.1,2.2-11.8,2.7-14.2c-2.8,0.3-4.7,0.5-5.6,0.5c-0.2,0-0.4,0-0.6,0l-2.6,15.9c0,0.1-0.9,3.1,0.1,4.6
						c0.3,0.5,0.8,0.7,1.5,0.8c3.1,0.3,3.8-3.6,4.4-7.1L62.8,139.5z M150.2,68.8c0.3-3.8,2.7-6.2,3.7-7c-2.2-2.7-4.6-10.1-4.7-10.4
						c0-0.1-3.3-11.4-9.3-12.6c-5.3-1.1-22.3-1-33.5-1c-2,0-3.9,0-5.5,0c-5,0-15.1-0.2-25.8-0.4C63.1,37.2,50.6,37,43.6,37
						c-1.7,0-3.4,0-5,0c-11.5-0.1-22.3-0.3-23.7,6.3c-1,4.9-1.7,14.8-1.7,25.1c0.3-0.5,0.8-1,1.3-1.4c1.6-1.2,6.4-1.7,10.2-1.8
						c0.7,0,1.4,0,2,0c2.9,0,4.9-0.1,10.7,0.7c15.3,1.9,21.9,3.5,23.1,5.6c2.1,2.3,2.4,6.5,2.6,11.3c0,0.5,0.1,1.1,0.1,1.6
						c1.3-0.1,5.7-0.4,10.2-0.6c6.3-0.4,37.6-2.4,42.5-2.7c4.4-0.3,27.2-1.4,32.9-1.6c0.2-0.6,0.6-2.2,0.9-4c0.3-2,0.3-2.6,0.4-3.9
						C150.1,70.9,150.1,70.1,150.2,68.8L150.2,68.8z M183.7,83c3.8-0.2,6.9-0.6,8.6-0.8c-2.2-0.5-7-0.9-9.4-1.2l-1.6-0.1
						c-2.6-0.3-24.6-0.6-27.7-0.6H150c-0.3,0-29.1,1.4-34.1,1.7c-4.9,0.3-36.1,2.3-42.5,2.7c-4.5,0.3-8.9,0.6-10.2,0.7
						c0,0.2,0,0.4,0,0.5c0.2,2,0.3,3.9,0.4,5.7c0,0.2,0,0.3,0,0.5c0,0,0.1-0.1,0.1-0.1c1-1.2,2.8-1.3,6.6-1.7c0.6-0.1,1.3-0.1,2-0.2
						c7.3-0.7,58.7-4,59.2-4C132,86,178.4,83.3,183.7,83L183.7,83z M193.4,86.7c0.1-1.4,0.1-3,0-3.8c-1.1,0.3-3.7,0.6-9.7,1
						c-5.3,0.3-51.7,3-52.2,3c-0.5,0-51.9,3.4-59.2,4c-0.7,0.1-1.4,0.1-2,0.2c-3.4,0.3-5.2,0.4-6,1.3c-0.5,0.6-0.6,1.7-0.3,4
						c0.7,6.1,1,6.6,1.6,7.8c0.5,0.9,4.8,0.6,7.2,0.4l0.2,0c2.9-0.2,18.8-1.6,31.5-2.7c9-0.8,16.8-1.5,18.6-1.6
						c4.6-0.4,61.2-5.3,67.1-6.7c1.8-0.4,3-2.2,3-4.5C193.3,88.4,193.4,87.6,193.4,86.7L193.4,86.7z M193.8,124.2
						c0.9-1.4,0-4.6-0.4-5.8l-1.9-9.3c-0.8,0.1-2.4,0.3-4.7,0.6l2.8,11.7c0,0.1,0.2,1.9,1.3,2.8c0.5,0.4,1.1,0.6,1.9,0.5
						C193.3,124.7,193.6,124.5,193.8,124.2L193.8,124.2z M199.2,69c0.5-1.7,0.8-3,1.7-3.7c-8.1-0.1-30.8-0.6-31-0.6
						c-1.3,0-12.8-0.4-15.2-2.1c-0.1,0-0.1-0.1-0.1-0.1c-0.8,0.7-3.2,2.8-3.5,6.4c-0.1,1.2-0.2,2-0.2,2.6c-0.1,1.3-0.2,2-0.4,4
						c-0.2,1.6-0.6,3.1-0.8,3.8c0.2,0,0.3,0,0.3,0h3.7c2.4,0,25,0.4,27.8,0.6l1.6,0.1c8.4,0.8,10.9,1.3,11.2,2.1
						c0.2,0.7,0.2,2.2,0.1,4.5c0,0.8-0.1,1.6-0.1,2.3c0,2.8-1.4,4.9-3.7,5.4c-5.9,1.3-62.6,6.4-67.3,6.7c-1.8,0.1-9.6,0.8-18.6,1.6
						c-13.4,1.2-28.6,2.5-31.5,2.7l-0.2,0c-1.5,0.1-2.8,0.2-4,0.2c-1.8,0-3.1-0.2-3.8-0.7c0.3,0.9,0.6,1.6,0.9,2.2
						c0.5,0.8,2.4,1.4,3.3,1.4c4.2,0,52.2-4.6,52.6-4.7l46.1-4.7c0.2,0,20.6-2,23.2-2.3c2.3-0.3,4.6-1.1,5.2-7.9
						c0.2-2.1,0.3-4.2,0.5-6.2c0.3-4.5,0.6-8.8,1.5-11.8C198.9,70.3,199.1,69.6,199.2,69L199.2,69z M206.1,73.6
						c0.3-2.4,0.6-5.7-0.8-7.3c-0.5-0.5-1.1-0.8-1.9-1c-2.3,0.1-2.5,1-3.3,3.8c-0.2,0.6-0.4,1.3-0.6,2.1c-0.9,2.9-1.2,7.1-1.5,11.6
						c-0.1,2-0.3,4.2-0.5,6.2c-0.7,6.7-2.9,8.3-6,8.7c-2.6,0.3-23,2.3-23.2,2.4l-46.1,4.7c-2,0.2-48.4,4.7-52.7,4.7
						c-1.2,0-3.3-0.7-4-1.9c-1.8-2.8-2.2-8.4-2.7-16c-0.1-1.8-0.2-3.7-0.4-5.7c-0.1-1-0.1-2.1-0.2-3c-0.4-7.4-0.7-12.8-7.6-12.5
						c-2,0.1-3.6,0.8-4.7,2.1c-3.2,3.8-2.2,11.7-1.7,15.9c0.1,0.8,0.2,1.5,0.2,2c0.3,4.2,5.2,31.8,5.3,32.7c0.3,0.1,0.6,0.3,0.9,0.4
						c1.9,0.8,3.2,1.3,5.3,1.3c8.2,0,130.6-16.5,131.8-16.7c0,0,4.7-1.1,6.8-2c2-0.9,4.3-5.5,5-8.3c0.6-2.6,2.3-19.2,2.3-22.1
						C205.9,75.2,206,74.5,206.1,73.6L206.1,73.6z M205.9,65.8c1.7,1.9,1.3,5.4,1.1,8c-0.1,0.8-0.2,1.5-0.2,2.1
						c0,3.1-1.6,19.6-2.3,22.3c-0.6,2.5-2.9,7.8-5.6,8.9c-1.8,0.8-5.4,1.6-6.6,1.9l1.9,9.2c0.1,0.1,1.6,4.5,0.3,6.5
						c-0.4,0.6-0.9,0.9-1.7,1c-0.2,0-0.3,0-0.4,0c-0.8,0-1.5-0.3-2.1-0.7c-1.4-1.2-1.6-3.3-1.6-3.3l-2.8-11.7
						c-22,3-96.3,12.9-119.5,15.4c-0.3,1.8-2.1,11.2-2.7,14.4l-0.1,0.5c-0.6,3.5-1.4,7.8-4.9,7.9c-0.1,0-0.3,0-0.4,0
						c-0.9-0.1-1.6-0.5-2.1-1.2c-1.3-1.9-0.3-5.2-0.3-5.4l2.5-15.8c-1.5-0.2-2.7-0.7-4.2-1.3c-0.9-0.4-2-0.8-3.4-1.3
						c-5.9-2-13.9-4.6-20.4-6.8c-0.4,1.4-1.5,5.9-2.6,9.2c-1.1,3.4-1.9,5.3-3.8,5.3c-0.2,0-0.4,0-0.6-0.1c-0.8-0.1-1.4-0.5-1.7-1
						c-0.5-0.8-0.5-2,0-3.9c0.6-2,2.4-9.8,2.8-11.6c-3.7-1.2-6.1-2.1-6.2-2.1l-0.2-0.1l-0.1-0.2c0-0.1-3.7-12.8-5-26.9
						c-1.4-14.7-0.6-34.2,1-41.9c1.5-7.3,12.7-7.2,24.6-7c1.7,0,3.4,0,5,0c7,0,19.5,0.3,31.6,0.5c10.7,0.2,20.8,0.4,25.8,0.4
						c1.6,0,3.5,0,5.5,0c11.3-0.1,28.3-0.2,33.7,1c6.5,1.4,9.8,12.7,10,13.2c0.8,2.5,3.3,9.4,5.1,10.7c1.8,1.3,11.2,1.8,14.7,1.9
						c0.3,0,26.2,0.6,32.5,0.6C203.9,64.4,205.1,64.9,205.9,65.8L205.9,65.8z"/>
					<path id="Fill-6" class="st0" d="M205.3,66.4c1.5,1.6,1.1,4.9,0.8,7.3c-0.1,0.8-0.2,1.6-0.2,2.2c0,2.9-1.6,19.5-2.3,22.1
						c-0.7,2.8-3,7.5-5,8.3c-2.1,0.9-6.8,1.9-6.8,2c-1.2,0.2-123.7,16.7-131.8,16.7c-2.2,0-3.4-0.5-5.3-1.3
						c-0.3-0.1-0.6-0.2-0.9-0.4c-0.2-0.9-5-28.5-5.3-32.7c0-0.5-0.1-1.2-0.2-2c-0.5-4.3-1.5-12.2,1.7-15.9c1.1-1.3,2.7-2,4.7-2.1
						c6.9-0.3,7.2,5.1,7.6,12.5c0.1,1,0.1,2,0.2,3c0.2,2,0.3,3.9,0.4,5.7c0.5,7.7,0.9,13.2,2.7,16c0.7,1.2,2.8,1.9,4,1.9
						c4.3,0,50.8-4.5,52.7-4.7l46.1-4.7c0.2,0,20.6-2,23.2-2.4c3.1-0.4,5.4-2,6-8.7c0.2-2.1,0.3-4.2,0.5-6.2
						c0.3-4.5,0.6-8.7,1.5-11.6c0.2-0.7,0.4-1.4,0.6-2.1c0.8-2.8,1-3.8,3.3-3.8C204.2,65.5,204.8,65.9,205.3,66.4"/>
					<path id="Fill-8" class="st0" d="M200.9,65.3c-0.9,0.7-1.2,2-1.7,3.7c-0.2,0.6-0.3,1.3-0.6,2c-0.9,3-1.2,7.3-1.5,11.8
						c-0.1,2-0.3,4.1-0.5,6.2c-0.7,6.8-3,7.6-5.2,7.9c-2.6,0.3-23,2.3-23.2,2.3l-46.1,4.7c-0.5,0-48.4,4.7-52.6,4.7
						c-0.9,0-2.7-0.6-3.3-1.4c-0.4-0.6-0.7-1.3-0.9-2.2c0.6,0.6,2,0.7,3.8,0.7c1.2,0,2.5-0.1,4-0.2l0.2,0c2.9-0.2,18.1-1.5,31.5-2.7
						c9-0.8,16.8-1.5,18.6-1.6c4.6-0.4,61.3-5.4,67.3-6.7c2.3-0.5,3.7-2.6,3.7-5.4c0-0.7,0-1.5,0.1-2.3c0.1-2.3,0.1-3.8-0.1-4.5
						c-0.3-0.9-2.8-1.4-11.2-2.1l-1.6-0.1c-2.7-0.3-25.4-0.6-27.8-0.6H150c0,0-0.1,0-0.3,0c0.2-0.8,0.6-2.2,0.8-3.8
						c0.3-2,0.3-2.7,0.4-4c0.1-0.6,0.1-1.5,0.2-2.6c0.3-3.6,2.7-5.8,3.5-6.4c0,0,0.1,0.1,0.1,0.1c2.4,1.7,13.9,2,15.2,2.1
						C170.1,64.7,192.8,65.2,200.9,65.3"/>
					<path id="Fill-10" class="st1" d="M193.4,118.4c0.4,1.1,1.3,4.4,0.4,5.8c-0.2,0.4-0.5,0.5-1,0.6c-0.8,0.1-1.4-0.1-1.9-0.5
						c-1.1-0.9-1.3-2.7-1.3-2.8l-2.8-11.7c2.3-0.3,3.9-0.5,4.7-0.6L193.4,118.4z"/>
					<path id="Fill-12" class="st0" d="M193.4,82.9c0.1,0.8,0,2.5,0,3.8c0,0.8-0.1,1.7-0.1,2.3c0,2.3-1.2,4.1-3,4.5
						c-5.9,1.3-62.5,6.3-67.1,6.7c-1.8,0.1-9.6,0.8-18.6,1.6c-12.7,1.1-28.5,2.5-31.5,2.7l-0.2,0c-2.3,0.2-6.7,0.4-7.2-0.4
						c-0.6-1.2-0.9-1.7-1.6-7.8c-0.3-2.3-0.2-3.4,0.3-4c0.7-0.9,2.6-1.1,6-1.3c0.6-0.1,1.3-0.1,2-0.2c7.3-0.7,58.6-4,59.2-4
						c0.5,0,46.9-2.7,52.2-3C189.8,83.5,192.3,83.2,193.4,82.9"/>
					<path id="Fill-14" class="st0" d="M192.3,82.2c-1.7,0.2-4.8,0.6-8.6,0.8c-5.3,0.3-51.7,3-52.2,3c-0.5,0-51.9,3.4-59.2,4
						c-0.7,0.1-1.4,0.1-2,0.2c-3.7,0.3-5.6,0.5-6.6,1.7c0,0-0.1,0.1-0.1,0.1c0-0.2,0-0.3,0-0.5c-0.1-1.8-0.2-3.7-0.4-5.7
						c0-0.2,0-0.4,0-0.5c1.3-0.1,5.7-0.4,10.2-0.7c6.3-0.4,37.5-2.4,42.5-2.7c4.9-0.3,33.8-1.7,34.1-1.7h3.7
						c3.1,0,25.1,0.4,27.7,0.6l1.6,0.1C185.3,81.3,190.1,81.7,192.3,82.2"/>
					<path id="Fill-16" class="st0" d="M154,61.9c-1,0.8-3.4,3.1-3.7,7c-0.1,1.2-0.2,2-0.2,2.7c-0.1,1.3-0.2,2-0.4,3.9
						c-0.3,1.8-0.7,3.4-0.9,4c-5.6,0.3-28.5,1.3-32.9,1.6c-4.9,0.3-36.1,2.3-42.5,2.7c-4.5,0.3-8.9,0.6-10.2,0.6
						c0-0.5-0.1-1.1-0.1-1.6c-0.3-4.8-0.5-9-2.6-11.3c-1.2-2.1-7.8-3.7-23.1-5.6c-5.8-0.7-7.7-0.7-10.7-0.7c-0.6,0-1.3,0-2,0
						c-3.8,0-8.6,0.6-10.2,1.8c-0.5,0.4-1,0.9-1.3,1.4c0-10.3,0.6-20.2,1.7-25.1c1.4-6.6,12.2-6.5,23.7-6.3c1.7,0,3.4,0,5,0
						c7,0,19.5,0.3,31.6,0.5c10.7,0.2,20.8,0.4,25.8,0.4c1.6,0,3.5,0,5.5,0c11.2-0.1,28.2-0.1,33.5,1c6,1.2,9.3,12.5,9.3,12.6
						C149.4,51.8,151.8,59.1,154,61.9"/>
					<path id="Fill-18" class="st1" d="M65.5,125.3c-0.4,2.3-2.1,11-2.7,14.2l-0.1,0.5c-0.6,3.5-1.3,7.4-4.4,7.1
						c-0.7-0.1-1.1-0.3-1.5-0.8c-1-1.5-0.1-4.6-0.1-4.6l2.6-15.9c0.2,0,0.4,0,0.6,0C60.8,125.8,62.7,125.6,65.5,125.3"/>
					<path id="Fill-20" class="st0" d="M52.8,122.8c-0.5-0.2-1-0.4-1.6-0.6c-11.4-3.8-30-10.1-32.3-10.8c-0.5-1.7-3.7-13.5-4.9-26.5
						c-0.4-4.6-0.7-9.7-0.7-14.7c0,0,0.2-0.4,0.5-0.9c0.3-0.5,0.8-1.1,1.4-1.6c1.2-0.9,5.3-1.6,9.7-1.6c0.7,0,1.4,0,2,0
						c2.9,0,4.8-0.1,10.5,0.7c3.8,0.5,11.7,1.4,17,2.8c-2.1,0.1-3.8,0.9-5.1,2.4c-3.5,4.1-2.5,12.2-1.9,16.6c0.1,0.8,0.2,1.5,0.2,2
						C47.8,94.6,52,118.7,52.8,122.8"/>
					<path id="Fill-22" class="st1" d="M29.6,116c-0.3,1.3-1.5,5.9-2.6,9.2c-1.4,4.2-1.9,4.9-3.5,4.7c-0.5-0.1-0.9-0.3-1.1-0.6
						c-0.4-0.6-0.3-1.6,0.1-3.1c0.6-2,2.3-9.6,2.8-11.6C26.7,115,28.1,115.5,29.6,116"/>
					<polygon id="Fill-1" class="st2" points="217.4,35.8 217.4,37 221.7,37 221.7,124.5 217.4,124.5 217.4,125.7 227.2,125.7 
						227.2,124.5 222.9,124.5 222.9,37 227.2,37 227.2,35.8 					"/>
					<polygon id="Fill-2" class="st2" points="12,137.6 12,147.3 13.2,147.3 13.2,143.4 50.9,162.3 50.9,166.8 52.1,166.8 
						52.1,157.1 50.9,157.1 50.9,161 13.2,142.1 13.2,137.6 					"/>
					<polygon id="Fill-3" class="st2" points="202.8,137.6 202.8,142 58.1,165.5 58.1,160.7 57,160.7 57,170.4 58.1,170.4 
						58.1,166.7 202.8,143.2 202.8,147.3 203.9,147.3 203.9,137.6 					"/>
				</g>
				<text transform="matrix(1 0 0 1 268 87)" class="st3 st4">Alto</text>
				<text transform="matrix(1 0 0 1 164 175)" class="st3 st4">Largo</text>
				<text transform="matrix(1 0 0 1 12 167)" class="st3 st4">Ancho</text>
			</g>
		</g>
	</g>
</g>
</svg>
