<?xml version="1.0" encoding="utf-8"?>
<!-- Generator: Adobe Illustrator 23.1.1, SVG Export Plug-In . SVG Version: 6.00 Build 0)  -->
<svg version="1.1" id="Layer_1" xmlns="http://www.w3.org/2000/svg" xmlns:xlink="http://www.w3.org/1999/xlink" x="0px" y="0px"
	 viewBox="0 0 48 48" style="enable-background:new 0 0 48 48;" xml:space="preserve">
<style type="text/css">
	.st0{fill-rule:evenodd;clip-rule:evenodd;fill:#627682;}
</style>
<path class="st0" d="M24.02,10.25c7.58,0,13.75,6.17,13.75,13.75S31.6,37.75,24.02,37.75c-3.23,0-6.33-1.13-8.8-3.18l1.78-1.78
	c1.99,1.59,4.47,2.46,7.02,2.46c6.2,0,11.25-5.05,11.25-11.25s-5.05-11.25-11.25-11.25c-2.97,0-5.77,1.15-7.88,3.23l-0.9,0.88
	l0.89,0.89l1.63,1.63l-7.52,0.68l0.68-7.52l1.67,1.67l0.88,0.88l0.88-0.87C16.94,11.66,20.37,10.25,24.02,10.25 M24.02,9
	c-4.11,0-7.84,1.66-10.55,4.33l-1.67-1.67c-0.25-0.25-0.57-0.37-0.88-0.37c-0.6,0-1.19,0.44-1.25,1.14l-0.68,7.52
	c-0.07,0.74,0.52,1.36,1.24,1.36c0.04,0,0.08,0,0.12-0.01l7.52-0.68c1.06-0.1,1.52-1.38,0.77-2.13l-1.63-1.63
	C18.81,15.1,21.28,14,24.02,14c5.52,0,10,4.48,10,10s-4.48,10-10,10c-2.48,0-4.74-0.9-6.49-2.39c-0.25-0.19-0.45-0.3-0.63-0.3
	c-0.16,0-0.3,0.08-0.45,0.26l-2.46,2.46c-0.31,0.37-0.27,0.84,0.02,1.14C16.66,37.55,20.17,39,24.02,39c8.28,0,15-6.72,15-15
	S32.3,9,24.02,9"/>
</svg>
