<?xml version="1.0" encoding="utf-8"?>
<!-- Generator: Adobe Illustrator 23.1.1, SVG Export Plug-In . SVG Version: 6.00 Build 0)  -->
<svg version="1.1" id="Layer_1" xmlns="http://www.w3.org/2000/svg" xmlns:xlink="http://www.w3.org/1999/xlink" x="0px" y="0px"
	 viewBox="0 0 48 48" style="enable-background:new 0 0 48 48;" xml:space="preserve">
<style type="text/css">
	.st0{fill:#627682;}
</style>
<g>
	<path class="st0" d="M40.88,12.18h-1.84V8.7c0-0.35-0.28-0.62-0.62-0.62H13.28c-0.34,0-0.62,0.28-0.62,0.62v11.94
		c0,0.34,0.28,0.62,0.62,0.62h1.84v1.06H9c-1.38,0-2.5,1.12-2.5,2.5v1.9v4.4v6.29c0,1.38,1.12,2.5,2.5,2.5h21.38
		c1.38,0,2.5-1.12,2.5-2.5v-6.29v-4.4v-1.36h7.99c0.35,0,0.62-0.28,0.62-0.62V12.8C41.5,12.46,41.22,12.18,40.88,12.18z M13.9,20.02
		V9.33h23.88v2.85h-9.16c-0.69-0.77-1.67-1.25-2.78-1.25s-2.1,0.49-2.78,1.25h-7.32c-0.35,0-0.62,0.28-0.62,0.62v7.22H13.9z
		 M31.63,37.42c0,0.69-0.56,1.25-1.25,1.25H9c-0.69,0-1.25-0.56-1.25-1.25v-6.29h23.88V37.42z M31.63,26.73H7.75v-1.9
		c0-0.69,0.56-1.25,1.25-1.25h21.38c0.69,0,1.25,0.56,1.25,1.25V26.73z M26.77,17.75v-0.01c0-0.67,0.53-1.12,1.31-1.19v-0.36h0.54
		v0.37c0.45,0.06,0.83,0.22,1.17,0.47l-0.35,0.59c-0.27-0.2-0.56-0.34-0.85-0.41v1.2c0.95,0.24,1.36,0.61,1.36,1.28v0.01
		c0,0.68-0.54,1.14-1.33,1.21v0.61h-0.54v-0.62c-0.54-0.06-1.06-0.28-1.47-0.62l0.4-0.57c0.36,0.29,0.69,0.48,1.1,0.55v-1.23
		C27.2,18.79,26.77,18.46,26.77,17.75z M40.25,24.12h-7.48c-0.31-1.03-1.25-1.79-2.38-1.79h-0.23c1.31-0.67,2.22-2.04,2.22-3.61
		c0-2.24-1.82-4.06-4.06-4.06c-2.24,0-4.06,1.82-4.06,4.06c0,1.58,0.9,2.94,2.22,3.61H16.37v-8.9h23.88V24.12z"/>
	<path class="st0" d="M29.22,19.75v-0.01c0-0.28-0.14-0.44-0.62-0.59v1.14C29,20.24,29.22,20.05,29.22,19.75z"/>
	<path class="st0" d="M27.51,17.7L27.51,17.7c0,0.27,0.12,0.44,0.6,0.59v-1.11C27.71,17.21,27.51,17.42,27.51,17.7z"/>
	<path class="st0" d="M10.25,35.57h12.5c0.35,0,0.62-0.28,0.62-0.62s-0.28-0.62-0.62-0.62h-12.5c-0.34,0-0.62,0.28-0.62,0.62
		S9.91,35.57,10.25,35.57z"/>
	<path class="st0" d="M24.94,35.57H29c0.35,0,0.62-0.28,0.62-0.62s-0.28-0.62-0.62-0.62h-4.06c-0.34,0-0.62,0.28-0.62,0.62
		S24.59,35.57,24.94,35.57z"/>
</g>
</svg>
