<?xml version="1.0" encoding="utf-8"?>
<!-- Generator: Adobe Illustrator 23.1.1, SVG Export Plug-In . SVG Version: 6.00 Build 0)  -->
<svg version="1.1" id="Layer_1" xmlns="http://www.w3.org/2000/svg" xmlns:xlink="http://www.w3.org/1999/xlink" x="0px" y="0px"
	 viewBox="0 0 48 48" style="enable-background:new 0 0 48 48;" xml:space="preserve">
<style type="text/css">
	.st0{fill:#627682;}
</style>
<g>
	<path class="st0" d="M32.18,18.38h-1.92v6.25h6.33c0.5,0,0.79-0.55,0.52-0.97l-3.97-4.85C32.89,18.53,32.54,18.38,32.18,18.38z"/>
	<path class="st0" d="M41.2,24.27l-6.45-7.52c-0.47-0.55-1.17-0.87-1.9-0.87h-3.85c0,0,0,0,0,0v-5c0-0.69-0.56-1.25-1.25-1.25H7.74
		c-0.69,0-1.25,0.56-1.25,1.25v22.5c0,0.69,0.56,1.25,1.25,1.25h2.5c0,2.07,1.68,3.75,3.75,3.75c2.07,0,3.75-1.68,3.75-3.75h11.26
		c0,0,0,0,0,0h1.24c0,2.07,1.68,3.75,3.75,3.75c2.07,0,3.75-1.68,3.75-3.75h2.51c0.69,0,1.25-0.56,1.25-1.25v-8.29
		C41.51,24.79,41.4,24.5,41.2,24.27z M27.76,17.13v16.25v0H17.53c-0.52-1.46-1.9-2.5-3.53-2.5c-1.63,0-3.02,1.04-3.53,2.5H7.74
		v-22.5h20.01V17.13z M40.25,33.38l-2.73,0c-0.52-1.45-1.9-2.5-3.53-2.5c-1.63,0-3.02,1.04-3.53,2.5h-1.46l0-16.25h3.85
		c0.37,0,0.71,0.16,0.95,0.44l6.45,7.53L40.25,33.38z"/>
</g>
</svg>
