<?xml version="1.0" encoding="utf-8"?>
<!-- Generator: Adobe Illustrator 23.1.1, SVG Export Plug-In . SVG Version: 6.00 Build 0)  -->
<svg version="1.1" id="Layer_1" xmlns="http://www.w3.org/2000/svg" xmlns:xlink="http://www.w3.org/1999/xlink" x="0px" y="0px"
	 viewBox="0 0 48 48" style="enable-background:new 0 0 48 48;" xml:space="preserve">
<style type="text/css">
	.st0{fill-rule:evenodd;clip-rule:evenodd;fill:#627682;}
</style>
<g>
	<path class="st0" d="M25.27,22.78h3.75c0.34,0,0.62-0.28,0.62-0.62v-2.5c0-0.34-0.28-0.62-0.62-0.62h-3.75
		c-0.35,0-0.62,0.28-0.62,0.62v2.5C24.64,22.5,24.92,22.78,25.27,22.78z"/>
	<path class="st0" d="M31.52,22.78h3.75c0.34,0,0.62-0.28,0.62-0.62v-2.5c0-0.34-0.28-0.62-0.62-0.62h-3.75
		c-0.35,0-0.62,0.28-0.62,0.62v2.5C30.89,22.5,31.17,22.78,31.52,22.78z"/>
	<path class="st0" d="M12.77,27.78h3.75c0.34,0,0.62-0.28,0.62-0.62v-2.5c0-0.35-0.28-0.62-0.62-0.62h-3.75
		c-0.35,0-0.62,0.28-0.62,0.62v2.5C12.14,27.5,12.42,27.78,12.77,27.78z"/>
	<path class="st0" d="M19.02,27.78h3.75c0.34,0,0.62-0.28,0.62-0.62v-2.5c0-0.35-0.28-0.62-0.62-0.62h-3.75
		c-0.35,0-0.62,0.28-0.62,0.62v2.5C18.39,27.5,18.67,27.78,19.02,27.78z"/>
	<path class="st0" d="M25.27,27.78h3.75c0.34,0,0.62-0.28,0.62-0.62v-2.5c0-0.35-0.28-0.62-0.62-0.62h-3.75
		c-0.35,0-0.62,0.28-0.62,0.62v2.5C24.64,27.5,24.92,27.78,25.27,27.78z"/>
	<path class="st0" d="M31.52,27.78h3.75c0.34,0,0.62-0.28,0.62-0.62v-2.5c0-0.35-0.28-0.62-0.62-0.62h-3.75
		c-0.35,0-0.62,0.28-0.62,0.62v2.5C30.89,27.5,31.17,27.78,31.52,27.78z"/>
	<path class="st0" d="M12.77,32.78h3.75c0.34,0,0.62-0.28,0.62-0.62v-2.5c0-0.34-0.28-0.62-0.62-0.62h-3.75
		c-0.35,0-0.62,0.28-0.62,0.62v2.5C12.14,32.5,12.42,32.78,12.77,32.78z"/>
	<path class="st0" d="M19.02,32.78h3.75c0.34,0,0.62-0.28,0.62-0.62v-2.5c0-0.34-0.28-0.62-0.62-0.62h-3.75
		c-0.35,0-0.62,0.28-0.62,0.62v2.5C18.39,32.5,18.67,32.78,19.02,32.78z"/>
	<path class="st0" d="M25.27,32.78h3.75c0.34,0,0.62-0.28,0.62-0.62v-2.5c0-0.34-0.28-0.62-0.62-0.62h-3.75
		c-0.35,0-0.62,0.28-0.62,0.62v2.5C24.64,32.5,24.92,32.78,25.27,32.78z"/>
	<path class="st0" d="M31.52,32.78h3.75c0.34,0,0.62-0.28,0.62-0.62v-2.5c0-0.34-0.28-0.62-0.62-0.62h-3.75
		c-0.35,0-0.62,0.28-0.62,0.62v2.5C30.89,32.5,31.17,32.78,31.52,32.78z"/>
	<path class="st0" d="M12.77,37.78h3.75c0.34,0,0.62-0.28,0.62-0.62v-2.5c0-0.34-0.28-0.62-0.62-0.62h-3.75
		c-0.35,0-0.62,0.28-0.62,0.62v2.5C12.14,37.5,12.42,37.78,12.77,37.78z"/>
	<path class="st0" d="M19.02,37.78h3.75c0.34,0,0.62-0.28,0.62-0.62v-2.5c0-0.34-0.28-0.62-0.62-0.62h-3.75
		c-0.35,0-0.62,0.28-0.62,0.62v2.5C18.39,37.5,18.67,37.78,19.02,37.78z"/>
	<path class="st0" d="M25.27,37.78h3.75c0.34,0,0.62-0.28,0.62-0.62v-2.5c0-0.34-0.28-0.62-0.62-0.62h-3.75
		c-0.35,0-0.62,0.28-0.62,0.62v2.5C24.64,37.5,24.92,37.78,25.27,37.78z"/>
	<path class="st0" d="M35.89,10.28h-2.5V7.72h-2.5v2.56H17.14V7.72h-2.5v2.56h-2.53c-1.38,0-2.5,1.12-2.5,2.5v25
		c0,1.38,1.12,2.5,2.5,2.5h23.78c1.38,0,2.5-1.12,2.5-2.5v-25C38.39,11.4,37.27,10.28,35.89,10.28z M37.14,37.78
		c0,0.69-0.56,1.25-1.25,1.25H12.11c-0.69,0-1.25-0.56-1.25-1.25V17.16h26.28V37.78z M37.14,15.91H10.86v-3.12
		c0-0.69,0.56-1.25,1.25-1.25h2.53v2.44h2.5v-2.44h13.75v2.44h2.5v-2.44h2.5c0.69,0,1.25,0.56,1.25,1.25V15.91z"/>
</g>
</svg>
