<svg width="40" height="40" fill="none"><rect width="40" height="40" rx="4" fill="#fff"></rect><path fill-rule="evenodd" clip-rule="evenodd" d="M16.279 15.176 14.59 24.99h2.702l1.688-9.815H16.28Zm-3.962 0-2.576 6.75-.305-1.453-.066-.326a8.21 8.21 0 0 0-2.397-2.873c-.404-.305-.81-.565-1.203-.787l2.341 8.504h2.815l4.299-9.815h-2.908ZM22.861 17.9c0-1.11 2.631-.968 3.787-.365l.386-2.108S25.844 15 24.604 15c-1.341 0-4.525.555-4.525 3.25 0 2.535 3.737 2.567 3.737 3.898 0 1.332-3.352 1.094-4.458.254l-.402 2.203s1.207.555 3.05.555c1.844 0 4.625-.904 4.625-3.36 0-2.552-3.77-2.79-3.77-3.9Zm11.024-2.725h-2.172c-1.003 0-1.247.731-1.247.731l-4.029 9.084h2.816l.563-1.458h3.435l.317 1.458h2.48l-2.163-9.815Zm-3.29 6.343 1.42-3.673.798 3.673h-2.218Z" fill="#005BAC"></path><path fill-rule="evenodd" clip-rule="evenodd" d="M8.922 16.24s-.126-1-1.473-1H2.557l-.057.188s2.351.454 4.607 2.152c2.156 1.623 2.86 3.647 2.86 3.647L8.921 16.24Z" fill="#F6AC1D"></path></svg>