<?xml version="1.0" encoding="UTF-8"?>
<svg width="64px" height="16px" viewBox="0 0 64 16" version="1.1" xmlns="http://www.w3.org/2000/svg" xmlns:xlink="http://www.w3.org/1999/xlink">
    <title>icons/logo/paypal 32px copy 8</title>
    <defs>
        <polygon id="path-1" points="0.206480808 0.298989899 3.76177778 0.298989899 3.76177778 10.020202 0.206480808 10.020202"></polygon>
        <polygon id="path-3" points="1.19727977e-05 0 13.1313449 0 13.1313449 15.5151515 1.19727977e-05 15.5151515"></polygon>
        <polygon id="path-5" points="1.19727977e-05 0 11.9792384 0 11.9792384 13.769697 1.19727977e-05 13.769697"></polygon>
        <polygon id="path-7" points="1.19727977e-05 0 11.9792384 0 11.9792384 13.769697 1.19727977e-05 13.769697"></polygon>
    </defs>
    <g id="Desktop" stroke="none" stroke-width="1" fill="none" fill-rule="evenodd">
        <g id="CO---Payment_selected_filled_Atrato" transform="translate(-186.000000, -603.000000)">
            <g id="Group" transform="translate(182.000000, 591.000000)">
                <rect id="Rectangle" x="0" y="0" width="72" height="40"></rect>
                <g id="Group-23" transform="translate(4.000000, 12.000000)">
                    <path d="M49.6610263,6.78787879 C49.4670869,8.08080808 48.4973899,8.08080808 47.5923394,8.08080808 L47.0751677,8.08080808 L47.4630465,5.75353535 C47.4630465,5.62424242 47.5923394,5.49494949 47.7216323,5.49494949 L47.9802182,5.49494949 C48.6266828,5.49494949 49.208501,5.49494949 49.5317333,5.88282828 C49.7256727,6.01212121 49.7903192,6.33535354 49.6610263,6.78787879 M49.2731475,3.49090909 L45.7822384,3.49090909 C45.5236525,3.49090909 45.3297131,3.68484848 45.3297131,3.87878788 L43.8428444,12.9292929 C43.8428444,13.1232323 43.9721374,13.2525253 44.1014303,13.2525253 L45.9115313,13.2525253 C46.1054707,13.2525253 46.2347636,13.1232323 46.2347636,12.9939394 L46.6226424,10.4080808 C46.6872889,10.1494949 46.8812283,10.020202 47.0751677,10.020202 L48.1741576,10.020202 C50.5014303,10.020202 51.8590061,8.92121212 52.1822384,6.65858586 C52.3115313,5.68888889 52.1822384,4.91313131 51.7297131,4.3959596 C51.3418343,3.74949495 50.4367838,3.49090909 49.2731475,3.49090909" id="Fill-1" fill="#009BDE"></path>
                    <path d="M24.6428444,6.78787879 C24.4489051,8.08080808 23.4792081,8.08080808 22.5741576,8.08080808 L22.0569859,8.08080808 L22.4448646,5.75353535 C22.4448646,5.62424242 22.5741576,5.49494949 22.7034505,5.49494949 L22.9620364,5.49494949 C23.608501,5.49494949 24.1903192,5.49494949 24.5135515,5.88282828 C24.6428444,6.01212121 24.7074909,6.33535354 24.6428444,6.78787879 M24.1903192,3.49090909 L20.6994101,3.49090909 C20.4408242,3.49090909 20.2468848,3.68484848 20.2468848,3.87878788 L18.7600162,12.9292929 C18.7600162,13.1232323 18.8893091,13.2525253 19.018602,13.2525253 L20.6994101,13.2525253 C20.957996,13.2525253 21.1519354,13.0585859 21.1519354,12.8646465 L21.5398141,10.4080808 C21.6044606,10.1494949 21.7984,10.020202 21.9923394,10.020202 L23.0913293,10.020202 C25.418602,10.020202 26.7761778,8.92121212 27.0994101,6.65858586 C27.228703,5.68888889 27.0994101,4.91313131 26.6468848,4.3959596 C26.2590061,3.74949495 25.3539556,3.49090909 24.1903192,3.49090909" id="Fill-3" fill="#002F87"></path>
                    <path d="M32.4004202,10.020202 C32.2064808,10.989899 31.4307232,11.6363636 30.4610263,11.6363636 C29.9438545,11.6363636 29.5559758,11.5070707 29.3620364,11.1838384 C29.1034505,10.8606061 29.038804,10.4727273 29.1034505,10.020202 C29.2327434,9.05050505 30.008501,8.4040404 30.978198,8.4040404 C31.4307232,8.4040404 31.818602,8.53333333 32.0771879,8.85656566 C32.3357737,9.11515152 32.4650667,9.5030303 32.4004202,10.020202 M34.7276929,6.72323232 L33.0468848,6.72323232 C32.9175919,6.72323232 32.788299,6.85252525 32.788299,6.98181818 L32.6590061,7.43434343 L32.5297131,7.24040404 C32.1418343,6.72323232 31.3660768,6.52929293 30.5256727,6.52929293 C28.6509253,6.52929293 27.0994101,7.95151515 26.7761778,9.89090909 C26.6468848,10.8606061 26.8408242,11.830303 27.4226424,12.4767677 C27.9398141,13.0585859 28.6509253,13.3171717 29.5559758,13.3171717 C31.0428444,13.3171717 31.8832485,12.3474747 31.8832485,12.3474747 L31.818602,12.9292929 C31.818602,13.1232323 31.9478949,13.2525253 32.0771879,13.2525253 L33.5640566,13.2525253 C33.8226424,13.2525253 34.0165818,13.0585859 34.0165818,12.8646465 L34.9216323,7.11111111 C35.0509253,6.85252525 34.9216323,6.72323232 34.7276929,6.72323232" id="Fill-5" fill="#002F87"></path>
                    <path d="M57.418602,10.020202 C57.2246626,10.989899 56.5135515,11.6363636 55.5438545,11.6363636 C55.0266828,11.6363636 54.638804,11.5070707 54.4448646,11.1838384 C54.1862788,10.8606061 54.1216323,10.4727273 54.1862788,10.020202 C54.3155717,9.05050505 55.0913293,8.4040404 56.0610263,8.4040404 C56.5135515,8.4040404 56.9014303,8.53333333 57.1600162,8.85656566 C57.418602,9.11515152 57.5478949,9.5030303 57.418602,10.020202 M59.8105212,6.72323232 L58.1297131,6.72323232 C58.0004202,6.72323232 57.8711273,6.85252525 57.8711273,6.98181818 L57.8064808,7.43434343 L57.6771879,7.24040404 C57.2893091,6.72323232 56.5135515,6.52929293 55.6731475,6.52929293 C53.7984,6.52929293 52.2468848,7.95151515 51.9236525,9.89090909 C51.7943596,10.8606061 51.988299,11.830303 52.5701172,12.4767677 C53.0872889,13.0585859 53.7984,13.3171717 54.7034505,13.3171717 C56.1903192,13.3171717 57.0307232,12.3474747 57.0307232,12.3474747 L56.9660768,12.8 C56.9660768,12.9939394 57.0953697,13.1232323 57.2246626,13.1232323 L58.7115313,13.1232323 C58.9701172,13.1232323 59.1640566,12.9292929 59.1640566,12.7353535 L60.0691071,6.98181818 C60.1337535,6.85252525 60.0044606,6.72323232 59.8105212,6.72323232" id="Fill-7" fill="#009BDE"></path>
                    <path d="M43.7135515,6.72323232 L42.0327434,6.72323232 C41.838804,6.72323232 41.7095111,6.78787879 41.6448646,6.91717172 L39.2529455,10.3434343 L38.2832485,7.04646465 C38.218602,6.85252525 38.0246626,6.72323232 37.8307232,6.72323232 L36.1499152,6.72323232 C35.9559758,6.72323232 35.8266828,6.91717172 35.8913293,7.11111111 L37.7660768,12.6060606 L36.0206222,15.0626263 C35.8913293,15.2565657 36.0206222,15.5151515 36.2792081,15.5151515 L37.9600162,15.5151515 C38.0893091,15.5151515 38.2832485,15.4505051 38.3478949,15.3212121 L43.9721374,7.17575758 C44.0367838,6.98181818 43.9074909,6.72323232 43.7135515,6.72323232" id="Fill-9" fill="#002F87"></path>
                    <g id="Group-13" transform="translate(60.121212, 3.232323)">
                        <mask id="mask-2" fill="white">
                            <use xlink:href="#path-1"></use>
                        </mask>
                        <g id="Clip-12"></g>
                        <path d="M1.62870303,0.517171717 L0.206480808,9.6969697 C0.206480808,9.89090909 0.335773737,10.020202 0.465066667,10.020202 L1.88728889,10.020202 C2.14587475,10.020202 2.33981414,9.82626263 2.33981414,9.63232323 L3.76203636,0.646464646 C3.76203636,0.452525253 3.63274343,0.323232323 3.50345051,0.323232323 L1.88728889,0.323232323 C1.82264242,0.258585859 1.69334949,0.323232323 1.62870303,0.517171717" id="Fill-11" fill="#009BDE" mask="url(#mask-2)"></path>
                    </g>
                    <g id="Group-16">
                        <mask id="mask-4" fill="white">
                            <use xlink:href="#path-3"></use>
                        </mask>
                        <g id="Clip-15"></g>
                        <path d="M11.9074909,3.94343434 C12.1014303,2.71515152 11.9074909,1.93939394 11.2610263,1.16363636 C10.4852687,0.323232323 9.19233939,-3.55271368e-15 7.57617778,-3.55271368e-15 L2.72769293,-3.55271368e-15 C2.40446061,-3.55271368e-15 2.08122828,0.258585859 2.01658182,0.581818182 L0.0125414141,13.3171717 C-0.0521050505,13.5757576 0.141834343,13.769697 0.400420202,13.769697 L3.37415758,13.769697 L3.18021818,15.0626263 C3.18021818,15.3212121 3.37415758,15.5151515 3.56809697,15.5151515 L6.08930909,15.5151515 C6.41254141,15.5151515 6.67112727,15.3212121 6.67112727,14.9979798 L6.67112727,14.8686869 L7.12365253,11.8949495 L7.12365253,11.7010101 C7.18829899,11.3777778 7.44688485,11.1838384 7.70547071,11.1838384 L8.09334949,11.1838384 C10.5499152,11.1838384 12.4246626,10.2141414 13.0064808,7.36969697 C13.2650667,6.20606061 13.1357737,5.17171717 12.4893091,4.46060606 C12.3600162,4.26666667 12.1660768,4.07272727 11.9074909,3.94343434" id="Fill-14" fill="#009BDE" mask="url(#mask-4)"></path>
                    </g>
                    <g id="Group-19">
                        <mask id="mask-6" fill="white">
                            <use xlink:href="#path-5"></use>
                        </mask>
                        <g id="Clip-18"></g>
                        <path d="M11.9074909,3.94343434 C12.1014303,2.71515152 11.9074909,1.93939394 11.2610263,1.16363636 C10.4852687,0.323232323 9.19233939,-3.55271368e-15 7.57617778,-3.55271368e-15 L2.72769293,-3.55271368e-15 C2.40446061,-3.55271368e-15 2.08122828,0.258585859 2.01658182,0.581818182 L0.0125414141,13.3171717 C-0.0521050505,13.5757576 0.141834343,13.769697 0.400420202,13.769697 L3.37415758,13.769697 L4.14991515,9.05050505 L4.14991515,9.17979798 C4.21456162,8.85656566 4.47314747,8.5979798 4.86102626,8.5979798 L6.28324848,8.5979798 C9.06304646,8.5979798 11.2610263,7.4989899 11.8428444,4.2020202 C11.8428444,4.13737374 11.8428444,4.00808081 11.9074909,3.94343434" id="Fill-17" fill="#022169" mask="url(#mask-6)"></path>
                    </g>
                    <g id="Group-22">
                        <mask id="mask-8" fill="white">
                            <use xlink:href="#path-7"></use>
                        </mask>
                        <g id="Clip-21"></g>
                        <path d="M4.99031919,3.94343434 C4.99031919,3.74949495 5.11961212,3.55555556 5.31355152,3.49090909 C5.37819798,3.42626263 5.50749091,3.42626263 5.57213737,3.42626263 L9.38627879,3.42626263 C9.83880404,3.42626263 10.2266828,3.42626263 10.6145616,3.49090909 C10.7438545,3.49090909 10.808501,3.55555556 10.9377939,3.55555556 C11.0670869,3.55555556 11.1317333,3.62020202 11.2610263,3.62020202 C11.3256727,3.62020202 11.3256727,3.62020202 11.3903192,3.68484848 C11.5842586,3.74949495 11.778198,3.81414141 11.9074909,3.87878788 C12.1014303,2.65050505 11.9074909,1.87474747 11.2610263,1.0989899 C10.4852687,0.323232323 9.19233939,-3.55271368e-15 7.57617778,-3.55271368e-15 L2.72769293,-3.55271368e-15 C2.40446061,-3.55271368e-15 2.08122828,0.258585859 2.01658182,0.581818182 L0.0125414141,13.3171717 C-0.0521050505,13.5757576 0.141834343,13.769697 0.400420202,13.769697 L3.37415758,13.769697 L4.14991515,9.05050505 L4.99031919,3.94343434 Z" id="Fill-20" fill="#002F87" mask="url(#mask-8)"></path>
                    </g>
                </g>
            </g>
        </g>
    </g>
</svg>