<?xml version="1.0" encoding="utf-8"?>
<!-- Generator: Adobe Illustrator 21.1.0, SVG Export Plug-In . SVG Version: 6.00 Build 0)  -->
<svg version="1.1" id="Capa_1" xmlns="http://www.w3.org/2000/svg" xmlns:xlink="http://www.w3.org/1999/xlink" x="0px" y="0px"
	 viewBox="0 0 64 40" style="enable-background:new 0 0 64 40;" xml:space="preserve">
<style type="text/css">
	.st0{fill:none;}
	.st1{fill:#333287;}
	.st2{fill:#FFFFFF;}
	.st3{fill:#F18B1A;}
</style>
<title>icons/logo/spei 32px</title>
<desc>Created with Sketch.</desc>
<g id="icons_x2F_logo_x2F_spei-32px">
	<rect id="Rectangle" class="st0" width="64" height="40"/>
	<g>
		<g>
			<g>
				<path class="st1" d="M10.3,20.1l3.8-0.2c0,0,0.1,1.8,1.6,2.1c1.5,0.3,2.4-0.1,2.5-1c0.1-0.9-0.4-1.4-2.5-2s-5-1.2-4.8-4.3
					s3.7-3.9,6.5-3.5c2.8,0.4,4,1.7,4.3,3.9l-3.8,0.1c0,0,0-1.8-1.8-1.7c-1.8,0.1-1.7,1.5-1,1.8c0.7,0.3,2.5,0.7,3.9,1.1
					c1.4,0.4,3.2,1.5,3.2,3.7s-1.7,4.5-5.8,4.5S10.7,22.8,10.3,20.1z"/>
				<path class="st2" d="M16.1,11.2c0.4,0,0.9,0,1.3,0.1c2.8,0.4,4,1.7,4.3,3.9l-3.8,0.1c0,0,0-1.7-1.7-1.7c-0.1,0-0.1,0-0.1,0
					c-1.8,0.1-1.7,1.5-1,1.8c0.7,0.3,2.5,0.7,3.9,1.1c1.4,0.4,3.2,1.5,3.2,3.7s-1.7,4.5-5.8,4.5c-4.3-0.1-5.7-1.9-6.1-4.6l3.8-0.2
					c0,0,0.1,1.8,1.6,2.1c0.3,0.1,0.6,0.1,0.9,0.1c1,0,1.6-0.4,1.7-1.1c0.1-0.9-0.4-1.4-2.5-2s-5-1.3-4.8-4.3
					C11,12.2,13.6,11.2,16.1,11.2 M16.1,10.8c-1.4,0-2.7,0.3-3.7,0.9c-1.2,0.7-1.9,1.7-1.9,3c-0.2,3.2,2.7,4,4.8,4.6l0.3,0.1
					c2.2,0.6,2.3,1,2.3,1.6c-0.1,0.6-0.8,0.8-1.3,0.8c-0.3,0-0.5,0-0.8-0.1c-1.2-0.3-1.3-1.7-1.3-1.7c0-0.2-0.2-0.3-0.3-0.3h0
					l-3.8,0.2c-0.1,0-0.2,0.1-0.3,0.1S10,20.1,10,20.1c0.4,3.3,2.4,4.9,6.3,4.9c2,0,3.6-0.5,4.7-1.5c1-0.8,1.5-2,1.5-3.4
					c0-2.8-2.7-3.8-3.5-4.1c-0.5-0.2-1.1-0.3-1.7-0.4c-0.9-0.2-1.8-0.4-2.2-0.6c-0.2-0.1-0.3-0.3-0.3-0.5c0.1-0.3,0.5-0.5,1.1-0.6
					c0.1,0,0.1,0,0.1,0c1.3,0,1.4,1.2,1.4,1.3c0,0.1,0,0.2,0.1,0.3c0.1,0.1,0.2,0.1,0.3,0.1c0,0,0,0,0,0l3.8-0.1
					c0.1,0,0.2-0.1,0.3-0.1c0.1-0.1,0.1-0.2,0.1-0.3c-0.3-2.5-1.8-3.8-4.6-4.2C17,10.9,16.6,10.8,16.1,10.8L16.1,10.8z"/>
			</g>
			<g>
				<path class="st1" d="M29.9,11.6c-1.8,0-6.9,0-6.9,0v12.8h4v-4.8c0,0,0.7,0,2.7,0s4.3-0.9,4.3-4.2S31.8,11.6,29.9,11.6z M28.6,17
					c-0.9,0-1.5,0-1.5,0v-2.9c0,0,0.5,0,1.5,0c1,0,1.7,0.6,1.7,1.5S29.4,17,28.6,17z"/>
				<path class="st2" d="M29.9,11.6c1.8,0,4.1,0.5,4.1,3.8c0,3.3-2.3,4.2-4.3,4.2s-2.7,0-2.7,0v4.8h-4V11.6
					C23.1,11.6,28.1,11.6,29.9,11.6 M27.1,17c0,0,0.6,0,1.5,0c0.9,0,1.7-0.6,1.7-1.5s-0.7-1.5-1.7-1.5c-1,0-1.5,0-1.5,0L27.1,17
					 M29.9,11.2h-6.8c-0.2,0-0.3,0.2-0.3,0.3v12.8c0,0.2,0.2,0.3,0.3,0.3h4c0.2,0,0.3-0.2,0.3-0.3v-4.4h2.3c0.9,0,2.1-0.2,3.1-0.9
					c1-0.8,1.6-2,1.6-3.6c0-1.6-0.5-2.8-1.5-3.4C32.1,11.5,31.2,11.2,29.9,11.2L29.9,11.2z M27.4,14.4h1.1c0.8,0,1.3,0.4,1.3,1.1
					c0,0.7-0.7,1.1-1.3,1.1h-1.1V14.4L27.4,14.4z"/>
			</g>
			<g>
				<polygon class="st3" points="35,11.6 45.7,11.6 45.7,14.6 39.1,14.6 39.1,16.7 45.3,16.7 45.3,19.2 39.1,19.2 39.1,21.5 
					46,21.5 46,24.4 35,24.4 				"/>
				<path class="st2" d="M45.7,11.6v3h-6.7v2.1h6.2v2.5h-6.2v2.3h6.9v2.8H35V11.6H45.7 M45.7,11.2H35c-0.2,0-0.3,0.2-0.3,0.3v12.8
					c0,0.2,0.2,0.3,0.3,0.3h11c0.2,0,0.3-0.2,0.3-0.3v-2.8c0-0.2-0.2-0.3-0.3-0.3h-6.5v-1.7h5.8c0.2,0,0.3-0.2,0.3-0.3v-2.6
					c0-0.2-0.2-0.3-0.3-0.3h-5.8v-1.4h6.3c0.2,0,0.3-0.2,0.3-0.3v-3C46.1,11.4,45.9,11.2,45.7,11.2L45.7,11.2z"/>
			</g>
			<g>
				<polygon class="st3" points="47.4,11.6 47.4,16.6 48.9,16.6 48.9,14.9 51.4,17.6 51.4,11.6 				"/>
				<path class="st2" d="M51.4,11.6v6l-2.5-2.6v1.6h-1.5v-5H51.4 M51.4,11.2h-4c-0.2,0-0.3,0.2-0.3,0.3v5c0,0.2,0.2,0.3,0.3,0.3h1.5
					c0.2,0,0.3-0.2,0.3-0.3v-0.8l2,2c0.1,0.1,0.2,0.1,0.3,0.1c0.1,0,0.1,0,0.1,0c0.1-0.1,0.2-0.2,0.2-0.3v-6
					C51.8,11.4,51.6,11.2,51.4,11.2L51.4,11.2z"/>
			</g>
			<g>
				<polygon class="st1" points="47.4,24.4 47.4,19.2 48.9,19.2 48.9,20.8 51.4,18.2 51.4,24.4 				"/>
				<path class="st2" d="M51.4,18.2v6.2h-4v-5.2h1.5v1.6L51.4,18.2 M51.4,17.8c-0.1,0-0.2,0-0.3,0.1l-2,2v-0.8
					c0-0.2-0.2-0.3-0.3-0.3h-1.5c-0.2,0-0.3,0.2-0.3,0.3v5.2c0,0.2,0.2,0.3,0.3,0.3h4c0.2,0,0.3-0.2,0.3-0.3v-6.2
					C51.7,18,51.6,17.9,51.4,17.8C51.5,17.8,51.5,17.8,51.4,17.8L51.4,17.8z"/>
			</g>
		</g>
		<g>
			<path d="M10.7,28.9v-2.1H10v-0.4h2v0.4h-0.8v2.1H10.7z"/>
			<path d="M12,28.9v-1.8h0.4v0.3c0.1-0.2,0.4-0.3,0.6-0.3v0.4c0,0-0.1,0-0.1,0c-0.2,0-0.4,0.1-0.5,0.3v1.2L12,28.9L12,28.9z"/>
			<path d="M14.4,28.9v-0.2c-0.1,0.2-0.3,0.3-0.6,0.3c-0.3,0-0.6-0.2-0.6-0.6c0-0.4,0.3-0.6,0.6-0.6c0.3,0,0.4,0.1,0.6,0.2v-0.3
				c0-0.2-0.2-0.3-0.4-0.3c-0.2,0-0.4,0.1-0.5,0.2l-0.2-0.3c0.2-0.2,0.5-0.3,0.8-0.3c0.4,0,0.8,0.2,0.8,0.7v1.2
				C14.8,28.9,14.4,28.9,14.4,28.9z M14.4,28.5v-0.3C14.3,28.1,14.2,28,14,28c-0.2,0-0.4,0.1-0.4,0.3c0,0.2,0.2,0.3,0.4,0.3
				C14.2,28.7,14.3,28.6,14.4,28.5z"/>
			<path d="M16.5,28.9v-1.1c0-0.3-0.1-0.4-0.4-0.4c-0.2,0-0.4,0.1-0.5,0.3v1.3h-0.4v-1.8h0.4v0.3c0.1-0.1,0.4-0.3,0.6-0.3
				c0.4,0,0.6,0.2,0.6,0.6v1.3L16.5,28.9L16.5,28.9z"/>
			<path d="M17.3,28.7l0.2-0.3c0.1,0.1,0.4,0.3,0.6,0.3c0.2,0,0.4-0.1,0.4-0.3c0-0.4-1.1-0.1-1.1-0.8c0-0.3,0.3-0.6,0.7-0.6
				c0.3,0,0.5,0.1,0.7,0.3l-0.2,0.3c-0.1-0.1-0.3-0.2-0.5-0.2c-0.2,0-0.3,0.1-0.3,0.2c0,0.3,1.1,0.1,1.1,0.8c0,0.3-0.3,0.6-0.8,0.6
				C17.8,28.9,17.5,28.8,17.3,28.7z"/>
			<path d="M19.3,28.9v-1.5H19v-0.3h0.3V27c0-0.4,0.2-0.6,0.6-0.6c0.2,0,0.3,0,0.4,0.2l-0.2,0.3c-0.1-0.1-0.1-0.1-0.2-0.1
				c-0.2,0-0.3,0.1-0.3,0.3v0.1h0.4v0.3h-0.4v1.5L19.3,28.9L19.3,28.9z"/>
			<path d="M20.3,28c0-0.5,0.4-1,0.9-1c0.6,0,0.9,0.4,0.9,1v0.1h-1.4c0,0.3,0.2,0.5,0.6,0.5c0.2,0,0.4-0.1,0.5-0.2l0.2,0.3
				c-0.2,0.2-0.4,0.3-0.7,0.3C20.7,28.9,20.3,28.6,20.3,28z M21.2,27.4c-0.3,0-0.5,0.3-0.5,0.5h1C21.7,27.6,21.5,27.4,21.2,27.4z"/>
			<path d="M22.5,28.9v-1.8h0.4v0.3c0.1-0.2,0.4-0.3,0.6-0.3v0.4c0,0-0.1,0-0.1,0c-0.2,0-0.4,0.1-0.5,0.3v1.2L22.5,28.9L22.5,28.9z"
				/>
			<path d="M23.7,28c0-0.5,0.4-1,0.9-1c0.6,0,0.9,0.4,0.9,1v0.1h-1.4c0,0.3,0.2,0.5,0.6,0.5c0.2,0,0.4-0.1,0.5-0.2l0.2,0.3
				c-0.2,0.2-0.4,0.3-0.7,0.3C24.1,28.9,23.7,28.6,23.7,28z M24.6,27.4c-0.3,0-0.5,0.3-0.5,0.5h1C25.1,27.6,25,27.4,24.6,27.4z"/>
			<path d="M27.1,28.9v-1.1c0-0.3-0.1-0.4-0.4-0.4c-0.2,0-0.4,0.1-0.5,0.3v1.3h-0.4v-1.8h0.4v0.3c0.1-0.1,0.4-0.3,0.6-0.3
				c0.4,0,0.6,0.2,0.6,0.6v1.3L27.1,28.9L27.1,28.9z"/>
			<path d="M27.9,28c0-0.6,0.4-1,1-1c0.4,0,0.6,0.1,0.7,0.3l-0.3,0.3c-0.1-0.1-0.3-0.2-0.4-0.2c-0.3,0-0.6,0.3-0.6,0.6
				s0.2,0.6,0.6,0.6c0.2,0,0.3-0.1,0.4-0.2l0.3,0.3c-0.1,0.2-0.3,0.3-0.7,0.3C28.3,28.9,27.9,28.5,27.9,28z"/>
			<path d="M29.9,26.6c0-0.1,0.1-0.3,0.3-0.3s0.3,0.1,0.3,0.3s-0.1,0.3-0.3,0.3S29.9,26.7,29.9,26.6z M29.9,28.9v-1.8h0.4v1.8H29.9z
				"/>
			<path d="M31.9,28.9v-0.2c-0.1,0.2-0.3,0.3-0.6,0.3c-0.3,0-0.6-0.2-0.6-0.6c0-0.4,0.3-0.6,0.6-0.6c0.3,0,0.4,0.1,0.6,0.2v-0.3
				c0-0.2-0.2-0.3-0.4-0.3c-0.2,0-0.4,0.1-0.5,0.2l-0.2-0.3c0.2-0.2,0.5-0.3,0.8-0.3c0.4,0,0.8,0.2,0.8,0.7v1.2
				C32.3,28.9,31.9,28.9,31.9,28.9z M31.9,28.5v-0.3c-0.1-0.1-0.3-0.2-0.4-0.2c-0.2,0-0.4,0.1-0.4,0.3c0,0.2,0.2,0.3,0.4,0.3
				C31.6,28.7,31.8,28.6,31.9,28.5z"/>
			<path d="M33.7,28c0-0.5,0.4-1,0.9-1c0.6,0,0.9,0.4,0.9,1v0.1h-1.4c0,0.3,0.2,0.5,0.6,0.5c0.2,0,0.4-0.1,0.5-0.2l0.2,0.3
				c-0.2,0.2-0.4,0.3-0.7,0.3C34.1,28.9,33.7,28.6,33.7,28z M34.6,27.4c-0.3,0-0.5,0.3-0.5,0.5h1C35.1,27.6,34.9,27.4,34.6,27.4z"/>
			<path d="M35.9,28.9v-2.5h0.4v2.5H35.9z"/>
			<path d="M36.7,28c0-0.5,0.4-1,0.9-1c0.6,0,0.9,0.4,0.9,1v0.1h-1.4c0,0.3,0.2,0.5,0.6,0.5c0.2,0,0.4-0.1,0.5-0.2l0.2,0.3
				c-0.2,0.2-0.4,0.3-0.7,0.3C37.1,28.9,36.7,28.6,36.7,28z M37.6,27.4c-0.3,0-0.5,0.3-0.5,0.5h1C38.1,27.6,38,27.4,37.6,27.4z"/>
			<path d="M38.8,28c0-0.6,0.4-1,1-1c0.4,0,0.6,0.1,0.7,0.3l-0.3,0.3c-0.1-0.1-0.3-0.2-0.4-0.2c-0.3,0-0.6,0.3-0.6,0.6
				s0.2,0.6,0.6,0.6c0.2,0,0.3-0.1,0.4-0.2l0.3,0.3c-0.1,0.2-0.3,0.3-0.7,0.3C39.2,28.9,38.8,28.5,38.8,28z"/>
			<path d="M40.8,28.5v-1.1h-0.3v-0.3h0.3v-0.5h0.4v0.5h0.4v0.3h-0.4v1c0,0.1,0.1,0.2,0.2,0.2c0.1,0,0.1,0,0.2-0.1l0.1,0.3
				c-0.1,0.1-0.2,0.1-0.4,0.1C41,28.9,40.8,28.8,40.8,28.5z"/>
			<path d="M42,28.9v-1.8h0.4v0.3c0.1-0.2,0.4-0.3,0.6-0.3v0.4c0,0-0.1,0-0.1,0c-0.2,0-0.4,0.1-0.5,0.3v1.2L42,28.9L42,28.9z"/>
			<path d="M43.1,28c0-0.5,0.4-1,0.9-1c0.6,0,1,0.4,1,1s-0.4,1-1,1C43.5,28.9,43.1,28.5,43.1,28z M44.6,28c0-0.3-0.2-0.6-0.5-0.6
				c-0.3,0-0.5,0.3-0.5,0.6s0.2,0.6,0.5,0.6S44.6,28.3,44.6,28z M44.1,26.8h-0.3l0.5-0.5h0.4L44.1,26.8z"/>
			<path d="M46.6,28.9v-1.1c0-0.3-0.1-0.4-0.4-0.4c-0.2,0-0.4,0.1-0.5,0.3v1.3h-0.4v-1.8h0.4v0.3c0.1-0.1,0.4-0.3,0.6-0.3
				c0.4,0,0.6,0.2,0.6,0.6v1.3L46.6,28.9L46.6,28.9z"/>
			<path d="M47.5,26.6c0-0.1,0.1-0.3,0.3-0.3s0.3,0.1,0.3,0.3s-0.1,0.3-0.3,0.3S47.5,26.7,47.5,26.6z M47.6,28.9v-1.8h0.4v1.8H47.6z
				"/>
			<path d="M48.3,28c0-0.6,0.4-1,1-1c0.4,0,0.6,0.1,0.7,0.3l-0.3,0.3c-0.1-0.1-0.3-0.2-0.4-0.2c-0.3,0-0.6,0.3-0.6,0.6
				s0.2,0.6,0.6,0.6c0.2,0,0.3-0.1,0.4-0.2l0.3,0.3c-0.1,0.2-0.3,0.3-0.7,0.3C48.7,28.9,48.3,28.5,48.3,28z"/>
			<path d="M51.4,28.9v-0.2c-0.1,0.2-0.3,0.3-0.6,0.3c-0.3,0-0.6-0.2-0.6-0.6c0-0.4,0.3-0.6,0.6-0.6c0.3,0,0.4,0.1,0.6,0.2v-0.3
				c0-0.2-0.2-0.3-0.4-0.3c-0.2,0-0.4,0.1-0.5,0.2l-0.2-0.3c0.2-0.2,0.5-0.3,0.8-0.3c0.4,0,0.8,0.2,0.8,0.7v1.2
				C51.8,28.9,51.4,28.9,51.4,28.9z M51.4,28.5v-0.3C51.4,28.1,51.2,28,51,28c-0.2,0-0.4,0.1-0.4,0.3c0,0.2,0.2,0.3,0.4,0.3
				C51.2,28.7,51.4,28.6,51.4,28.5z"/>
		</g>
	</g>
</g>
</svg>
