<?xml version="1.0" encoding="UTF-8"?>
<svg width="76px" height="19px" viewBox="0 0 76 19" version="1.1" xmlns="http://www.w3.org/2000/svg" xmlns:xlink="http://www.w3.org/1999/xlink">
    <title>Group 11</title>
    <g id="Desktop" stroke="none" stroke-width="1" fill="none" fill-rule="evenodd">
        <g id="Group-11" fill="#070D57">
            <path d="M16.6470254,0 C16.3966848,0 16.1877838,0.0742047244 16.0208901,0.223811024 C15.8539964,0.374015748 15.7376249,0.536188976 15.6706403,0.712724409 L9,18.4057638 C9.35933243,18.7773858 9.84638965,19 10.3703451,19 C11.1684832,19 11.8865804,18.4895433 12.1868756,17.7097953 L19,0 L16.6470254,0 Z" id="Fill-1"></path>
            <path d="M4.14664086,0.730758906 C4.04272742,0.52275952 3.89145208,0.349119914 3.69422863,0.209840089 C3.49629828,0.0693331288 3.23686814,0 2.91523132,0 L0,0 L7.47611212,16 L8.68772863,13.3702496 C9.10479615,12.4658511 9.10408926,11.4565326 8.68560795,10.5521341 L4.14664086,0.730758906 Z" id="Fill-3"></path>
            <polygon id="Fill-5" points="23 19 26 19 26 0 23 0"></polygon>
            <path d="M47,0 L39.8949549,17.7097953 C39.5817931,18.4895433 38.8323357,19 38,19 C37.1676643,19 36.4182069,18.4895433 36.105637,17.7097953 L29,0 L31.4413603,0 C31.710715,0 31.9279747,0.0682204724 32.0937315,0.204661417 C32.2588963,0.340503937 32.3855818,0.509858268 32.4726041,0.712724409 L38.0325594,14.7224567 L43.5273959,0.712724409 C43.5972505,0.536188976 43.7186082,0.374015748 43.8932448,0.223811024 C44.0666974,0.0742047244 44.2851411,0 44.546208,0 L47,0 Z" id="Fill-7"></path>
            <polygon id="Fill-8" points="50.9189677 19 48 19 55.0810323 0 58 0"></polygon>
            <path d="M73.7983226,19 L76,19 L69.1167242,1.4535748 C68.7727676,0.576283465 67.9333004,0 66.999704,0 L66.999704,0 C66.0661075,0 65.2266404,0.576283465 64.8826838,1.4535748 L58,19 L60.176813,19 C60.4378885,19 60.6557474,18.9251969 60.8297977,18.7749921 C61.0038481,18.6259843 61.1252097,18.463811 61.1950666,18.2872756 L61.2785397,18.0808189 L66.9931919,3.94182677 L72.8445979,18.4219213 C72.925111,18.5631496 73.0204243,18.691811 73.146522,18.7953386 C73.3111001,18.9311811 73.528367,19 73.7983226,19" id="Fill-9"></path>
        </g>
    </g>
</svg>
